<svg t="1778470729609" class="icon" viewBox="0 0 1024 1024" version="1.1" xmlns="http://www.w3.org/2000/svg" p-id="38707" width="200" height="200"><path d="M626.91590055 51.73474683c-51.09430259-15.68928313-82.98196141 43.96701835-60.62820401 91.08114815 25.50087097 50.214963 38.27444661 103.57703735 38.27444659 166.38045025 0 197.80529905-165.96392065 361.0849183-370.24857037 361.08491829-22.35375739 0-44.70751478-3.14711355-67.01499186-6.29422495-57.48109044-9.44133852-121.30268837 37.67279125-89.36874704 87.93403457C164.10518699 886.8766768 317.29553414 974.8107114 489.64624261 974.8107114 757.75248813 974.8107114 974.8107114 764.46324272 974.8107114 503.85453075c0-213.4945822-153.19034499-392.46348457-347.89481085-452.11978392z" fill="#FE671D" p-id="38708"></path><path d="M313.93219191 293.26297696l-51.42251139 71.1961537c-17.15004302 24.35803212 0 58.07816501 30.4613477 58.07816501l133.33399073 0c20.93354731 0 38.08359034-16.8462576 38.08358904-37.47602081 0-20.6021455-17.12242665-37.47601951-38.11120672-37.4760195L367.28788131 347.58525536c7.59462496-11.24004474 15.2168663-22.48008817 24.74466799-31.84218895 11.43336202-16.84625761 32.39452571-35.59807685 36.17802999-54.3222784 3.81112067-13.11798738-3.78350429-28.11391873-15.21686631-35.62569325-19.05560336-13.090371-51.42251268-7.45654045-72.35605869-7.45654044l-66.69461175 0c-20.93354731 0-38.08359034 16.8462576-38.08359033 37.44840312 0 20.62976189 17.12242665 37.47601951 38.11120672 37.47601952l39.98915066 0z" fill="#FE671D" p-id="38709"></path></svg>
