<svg t="1778468291605" class="icon" viewBox="0 0 1024 1024" version="1.1" xmlns="http://www.w3.org/2000/svg" p-id="22715" width="200" height="200"><path d="M907.7 402.2c-37.8 25.2-88.9 14.9-114.1-22.9-0.8-1.2-1.5-2.3-2.2-3.5l-146.3 97.3-62.3-93.6 146.3-97.3c-0.8-1-1.6-2.2-2.3-3.3-25.2-37.8-14.9-88.9 22.9-114.1s88.9-14.9 114.1 22.9c13.3 19.9 16.7 43.5 11.3 65 21.9 3.4 42.3 15.6 55.5 35.5 25.2 37.7 14.9 88.8-22.9 114z" fill="#FCECDB" p-id="22716"></path><path d="M645.1 489.7c-1.1 0-2.2-0.1-3.3-0.3-4.3-0.9-8.1-3.4-10.6-7.1l-62.3-93.6c-5.1-7.7-3-18 4.6-23.1l132.9-88.5c-21.8-43.9-8-98.4 33.9-126.3 22-14.6 48.4-19.8 74.3-14.6 25.9 5.2 48.3 20.2 62.9 42.2 12.2 18.3 17.8 40.1 16.3 61.7 20.5 6.9 38.4 20.5 50.6 38.8 30.2 45.4 17.9 107-27.6 137.2-41.9 27.9-97.5 19.5-129.6-17.6L654.3 487c-2.7 1.8-5.9 2.7-9.2 2.7z m-39.2-105.6l43.8 65.9 132.4-88.1c3.9-2.6 8.6-3.4 13.1-2.3s8.4 4 10.6 8l1.5 2.4c20.1 30.2 60.9 38.4 91 18.3 30.1-20 38.3-60.9 18.3-91-10.1-15.2-26.2-25.5-44.2-28.3-4.6-0.7-8.8-3.3-11.3-7.2s-3.4-8.7-2.3-13.3c4.4-17.6 1.1-36.5-9-51.7-9.7-14.6-24.5-24.5-41.7-28-17.2-3.5-34.7 0-49.3 9.7-14.6 9.7-24.5 24.5-28 41.7-3.5 17.2 0 34.7 9.7 49.3 0.5 0.8 1 1.5 1.5 2.2 2.9 3.7 4.1 8.4 3.4 13-0.7 4.6-3.3 8.7-7.2 11.3l-132.3 88.1z" fill="#59285E" p-id="22717"></path><path d="M627.5 342.7c-130.3-81.8-366.2-22.9-471.3 85.3-165 169.9-43.4 443.8 193.8 446.9 113.2 1.4 222-60.1 292.2-148.9 44.6-56.4 75.8-125.8 76.1-197.8 0.3-91.4-35.9-151-90.8-185.5z" fill="#EE7725" p-id="22718"></path><path d="M353.9 891.6h-4.1c-119-1.5-220.5-68.9-264.9-175.7-42.8-103-20.1-217.7 59.3-299.4 108.4-111.6 352.1-175.7 492.1-87.8 64.8 40.7 99 109.7 98.7 199.6-0.2 69.5-28.5 143.3-79.6 208-77.1 97.4-189.5 155.3-301.5 155.3zM475.2 321c-113.1 0-239.6 49.2-307.1 118.6-71 73.1-90.6 171.6-52.4 263.4 39.2 94.4 129.1 153.8 234.5 155.2h3.7c101.8 0 204.5-53.1 275.2-142.6 46.5-58.9 72.2-125.4 72.5-187.5 0.3-78.9-27.7-136.5-83-171.3-39.7-24.9-90-35.8-143.4-35.8z" fill="#59285E" p-id="22719"></path></svg>
